<svg id="Logo" xmlns="http://www.w3.org/2000/svg" width="171" height="38.475" viewBox="0 0 120 27">
  <metadata><?xpacket begin="﻿" id="W5M0MpCehiHzreSzNTczkc9d"?>
<x:xmpmeta xmlns:x="adobe:ns:meta/" x:xmptk="Adobe XMP Core 5.6-c138 79.159824, 2016/09/14-01:09:01        ">
   <rdf:RDF xmlns:rdf="http://www.w3.org/1999/02/22-rdf-syntax-ns#">
      <rdf:Description rdf:about=""/>
   </rdf:RDF>
</x:xmpmeta>
                                                                                                    
                                                                                                    
                                                                                                    
                                                                                                    
                                                                                                    
                                                                                                    
                                                                                                    
                                                                                                    
                                                                                                    
                                                                                                    
                                                                                                    
                                                                                                    
                                                                                                    
                                                                                                    
                                                                                                    
                                                                                                    
                                                                                                    
                                                                                                    
                                                                                                    
                                                                                                    
                           
<?xpacket end="w"?></metadata>
<defs>
    <style>
      .cls-1 {
        fill: #006bff;
        fill-rule: evenodd;
      }
    </style>
  </defs>
  <g id="Art_Fund_logo" data-name="Art Fund logo">
    <path id="Logo-2" data-name="Logo" class="cls-1" d="M7.583,1.613h3.322l7.551,22.049H15.285l-1.963-5.739H5.136L3.2,23.663H0.032ZM6.163,14.9h6.131L9.244,5.842ZM19.634,9.467h2.718l0.3,1.51,0.151,0.151,0.151-.151a4.174,4.174,0,0,1,3.322-1.812,2.719,2.719,0,0,1,1.51.3v2.718H25.976a3.349,3.349,0,0,0-3.322,3.2v8.276h-3.02V9.467Zm8.88,2.718h2.779v7.248c0,2.718,1.631,4.229,4.651,4.229l1.661-.3V20.642l-1.812.3a1.451,1.451,0,0,1-1.54-1.51V12.185h3.081V9.467H34.252V3.426H33.678L31.292,6.447v3.02H28.513v2.718ZM46.7,1.613H59.985V4.634H49.867v6.342h9.212V14H49.867v9.665H46.7V1.613ZM73.214,23.663H70.5l-0.3-1.209L70.043,22.3l-0.151.151a4.328,4.328,0,0,1-3.322,1.51,5.389,5.389,0,0,1-5.739-5.739V9.467h3.02v8.759c0.06,1.933,1,3.02,3.02,3.02a3.365,3.365,0,0,0,3.322-3.171V9.467h3.02v14.2Zm2.477-14.2h2.718l0.3,1.208,0.151,0.151,0.151-.151a4.326,4.326,0,0,1,3.322-1.511A5.389,5.389,0,0,1,88.074,14.9v8.76h-3.02V14.9c-0.091-1.933-1.027-3.02-3.02-3.02a3.349,3.349,0,0,0-3.322,3.2v8.579h-3.02V9.467Zm28.481-8.759h-3.02v9.967L101,10.826l-0.151-.151a5.8,5.8,0,0,0-3.926-1.511,7.192,7.192,0,0,0-7.249,7.4,7.191,7.191,0,0,0,7.249,7.4,5.744,5.744,0,0,0,3.926-1.51L101,22.3l0.151,0.151,0.3,1.209h2.718V0.708Zm-2.718,15.856a4.455,4.455,0,0,1-4.38,4.682c-2.869,0-4.41-2.114-4.41-4.682s1.54-4.681,4.41-4.681A4.455,4.455,0,0,1,101.454,16.564ZM120,23.663v2.869H106.046V23.663H120Z"/>
  </g>
</svg>
