<?xml version="1.0" encoding="utf-8"?>
<!-- Generator: Adobe Illustrator 16.0.0, SVG Export Plug-In . SVG Version: 6.00 Build 0)  -->
<!DOCTYPE svg PUBLIC "-//W3C//DTD SVG 1.1//EN" "http://www.w3.org/Graphics/SVG/1.1/DTD/svg11.dtd">
<svg version="1.1" id="Layer_1" xmlns="http://www.w3.org/2000/svg" xmlns:xlink="http://www.w3.org/1999/xlink" x="0px" y="0px"
	 width="1500px" height="500px" viewBox="0 0 1500 500" enable-background="new 0 0 1500 500" xml:space="preserve">
<g>
	<path fill-rule="evenodd" clip-rule="evenodd" fill="#00625F" d="M1201.325,67.309c0,17.375,0.071,35.949,0.071,57.672
		c14.373,0,32.54,0.15,48.004,0.15c0,7.278,0.063,15.51,0.063,22.796c12.846-13.434,37.559-25.361,66.621-27.312
		c25.226-1.684,49.06,5.974,69.906,12.018c-2.606,17.048-8.304,31.014-10.929,48.065c-9.016-3.808-72.193-25.244-73.179,4.362
		c-0.505,15.154,26.471,23.048,40.433,28.227c31.122,11.552,56.742,32.795,56.742,67.034c0,45.199-25.722,74.143-110.274,68.59
		c-19.062-1.254-37.145-6.554-37.145-6.554s-31.686,6.554-54.617,6.554c-76.001,0-65.528-82.775-65.528-171.496
		c-7.603-2.503-4.018,6.188-6.563,8.739c-27.153,0-42.616,0.179-54.599,18.507c-12.862,19.669-10.934,93.658-10.934,138.787
		c-22.574,0-45.154,0-67.726,0c0-71.831,0-144.086,0-216.28c19.299,0,40.771,0,60.076,0c0,13.19,0,23.8,0,36.047
		c10.46-27.265,44.427-53.194,80.83-37.131c0-13.889-0.067-27.497-0.067-41.382C1155.158,79.672,1179.252,72.902,1201.325,67.309z
		 M1200.3,176.329c0,36.534-5.185,98.585,8.731,112.501c5.109,5.108,30.099,9.04,36.054-2.18
		c12.923,5.248,28.137,12.769,46.971,14.195c20.267,1.541,40.088-1.895,38.233-20.747c-1.649-16.725-34.987-23.109-52.438-31.681
		c-26.481-13.025-48.519-34.934-39.323-72.089C1225.793,176.329,1213.044,176.329,1200.3,176.329z"/>
	<path fill-rule="evenodd" clip-rule="evenodd" fill="#00625F" d="M301.334,183.973c0-23.378,0-34.727,0-56.805
		c19.654,0,40.419,0,60.083,0c0,17.438,0,12.342,0,25.125c20.473-16.592,50.313-34.36,83.012-31.677
		c40.641,3.34,64.399,34.602,77.555,68.822c0-20.922,0-35.084,0-62.269c22.945,0,46.965,0,69.904,0c0,23.311,0,46.605,0,69.909
		c18.084-60.517,97.702-92.509,173.676-67.724c-3.518,17.239-7.295,34.213-10.933,51.345c-23.821-9.211-58.395-8.761-75.36,5.456
		c-37.769,31.65-21.742,103.172,31.673,108.142c15.377,1.431,28.469-2.285,45.88-6.563c2.448,17.224,5.465,33.229,7.65,51.341
		c-69.679,25.076-155.54,1.226-170.409-58.976c0,20.1,0,40.509,0,63.35c-22.936,0-46.96,0-69.899,0c0-22.942,0-45.877,0-68.818
		c-12.777,35.326-40.318,69.491-85.199,74.281c-29.173,3.113-50.107-7.061-66.632-21.853c0,34.956,0,69.907,0,104.868
		c-22.937,0-45.88,0-68.824,0c0-58.26,0-116.511,0-174.777c-45.504,0-91.026,0-136.525,0c4.754,48.222,80.208,43.647,121.243,30.584
		c2.227,16.349,5.624,31.52,8.737,46.973c-24.985,9.197-49.4,14.159-79.743,14.205c-65.885,0.094-111.01-35.285-115.781-97.216
		c-5.233-67.916,30.601-125.895,97.216-131.08C256.805,116.1,286.919,142.417,301.334,183.973z M165.889,210.188
		c26.58,0,53.156,0,79.74,0C252.161,150.305,161.113,154.966,165.889,210.188z M372.337,204.726
		c-4.808,18.314-4.655,53.523,2.191,68.818c13.793,30.827,59.099,28.913,75.359,2.175c23.782-39.065,4.797-109.559-44.778-100.493
		C389.054,178.17,376.015,190.706,372.337,204.726z"/>
	<path fill-rule="evenodd" clip-rule="evenodd" fill="#00625F" d="M981.677,343.448c-20.385,0-40.619,0-61.002,0
		c0-6.736,0-11.481,0-18.577c-6.48,6.802-12.312,10.122-19.664,14.203c-52.114,28.97-121.091-2.405-113.598-69.899
		c6.108-54.965,63.832-69.697,126.702-71.006c-3.394-46.639-73.192-25.93-99.394-14.196c-3.731-14.838-8.847-28.299-12.013-43.694
		c44.436-25.269,126.706-26.216,159.478,6.555c17.071,17.072,19.49,32.256,19.49,58.179
		C981.677,249.088,981.677,299.634,981.677,343.448z M856.228,261.519c-4.887,10.374-2.72,24.052,2.187,30.585
		c12.647,16.851,50.431,9.649,57.895-14.198c3.12-9.979-0.055-21.76,1.086-37.138C890,241.472,864.494,243.981,856.228,261.519z"/>
	<path fill-rule="evenodd" clip-rule="evenodd" fill="#ED1A75" d="M568.95,436.299c-6.92,0-13.834,0-20.75,0
		c-17.204-5.979-26.255-17.569-28.401-29.498c-10.737-59.526,82.114-58.902,77.555-4.377
		C596.009,418.449,584.379,431.603,568.95,436.299z"/>
</g>
</svg>
